HIERARCHY
ROOT Hips
{
  OFFSET 53.0888 96.0635 10.5437
  CHANNELS 6 Xposition Yposition Zposition Zrotation Xrotation Yrotation
  JOINT spine
  {
    OFFSET 0 8.13249 0.467659
    CHANNELS 3 Zrotation Xrotation Yrotation
    JOINT spine1
    {
      OFFSET 0 10.3498 0
      CHANNELS 3 Zrotation Xrotation Yrotation
      JOINT spine2
      {
        OFFSET 0 9.91699 0
        CHANNELS 3 Zrotation Xrotation Yrotation
        JOINT Neck
        {
          OFFSET 0 25.461 1.2139
          CHANNELS 3 Zrotation Xrotation Yrotation
          JOINT Head
          {
            OFFSET 0 7.69245 0
            CHANNELS 3 Zrotation Xrotation Yrotation
            End Site
            {
              OFFSET 0 18.62 -6.14063
            }
          }
        }
        JOINT RightShoulder
        {
          OFFSET -4.17575 10.7096 -0.581445
          CHANNELS 3 Zrotation Xrotation Yrotation
          JOINT RightArm
          {
            OFFSET 0 14.0466 0
            CHANNELS 3 Zrotation Xrotation Yrotation
            JOINT RightArmRoll
            {
              OFFSET 0 7.09099 0
              CHANNELS 3 Zrotation Xrotation Yrotation
              JOINT RightForeArm
              {
                OFFSET 0 20.6535 0
                CHANNELS 3 Zrotation Xrotation Yrotation
                JOINT RightForeArmRoll
                {
                  OFFSET 0 7.95718 0
                  CHANNELS 3 Zrotation Xrotation Yrotation
                  JOINT RightHand
                  {
                    OFFSET 0 15.9683 0
                    CHANNELS 3 Zrotation Xrotation Yrotation
                    End Site
                    {
                      OFFSET 0 0 0
                    }
                  }
                }
              }
            }
          }
        }
        JOINT LeftShoulder
        {
          OFFSET 4.17575 10.7096 -0.581445
          CHANNELS 3 Zrotation Xrotation Yrotation
          JOINT LeftArm
          {
            OFFSET 0 14.0466 0
            CHANNELS 3 Zrotation Xrotation Yrotation
            JOINT LeftArmRoll
            {
              OFFSET 0 7.09099 0
              CHANNELS 3 Zrotation Xrotation Yrotation
              JOINT LeftForeArm
              {
                OFFSET 0 20.6535 0
                CHANNELS 3 Zrotation Xrotation Yrotation
                JOINT LeftForeArmRoll
                {
                  OFFSET 0 7.95718 0
                  CHANNELS 3 Zrotation Xrotation Yrotation
                  JOINT LeftHand
                  {
                    OFFSET 0 15.9683 0
                    CHANNELS 3 Zrotation Xrotation Yrotation
                    End Site
                    {
                      OFFSET 0 0 0
                    }
                  }
                }
              }
            }
          }
        }
      }
    }
  }
  JOINT RightUpLeg
  {
    OFFSET -7.20834 -1.32182 -1.10884
    CHANNELS 3 Zrotation Xrotation Yrotation
    JOINT RightUpLegRoll
    {
      OFFSET 0 18.7238 0
      CHANNELS 3 Zrotation Xrotation Yrotation
      JOINT RightLeg
      {
        OFFSET 0 -23.1866 0
        CHANNELS 3 Zrotation Xrotation Yrotation
        JOINT RightLegRoll
        {
          OFFSET 0 23.2624 0
          CHANNELS 3 Zrotation Xrotation Yrotation
          JOINT RightFoot
          {
            OFFSET 0 19.3621 0
            CHANNELS 3 Zrotation Xrotation Yrotation
            JOINT RightToeBase
            {
              OFFSET 0 16.1857 0
              CHANNELS 3 Zrotation Xrotation Yrotation
              End Site
              {
                OFFSET 0.00686052 7.83862 -0.903522
              }
            }
          }
        }
      }
    }
  }
  JOINT LeftUpLeg
  {
    OFFSET 7.20834 -1.32182 -1.10884
    CHANNELS 3 Zrotation Xrotation Yrotation
    JOINT LeftUpLegRoll
    {
      OFFSET 0 18.7239 0
      CHANNELS 3 Zrotation Xrotation Yrotation
      JOINT LeftLeg
      {
        OFFSET 0 23.1865 0
        CHANNELS 3 Zrotation Xrotation Yrotation
        JOINT LeftLegRoll
        {
          OFFSET 0 23.4775 0
          CHANNELS 3 Zrotation Xrotation Yrotation
          JOINT LeftFoot
          {
            OFFSET 0 19.147 0
            CHANNELS 3 Zrotation Xrotation Yrotation
            JOINT LeftToeBase
            {
              OFFSET 0 16.1857 0
              CHANNELS 3 Zrotation Xrotation Yrotation
              End Site
              {
                OFFSET -0.0307459 7.83863 -0.903522
              }
            }
          }
        }
      }
    }
  }
}
MOTION
Frames: 8
Frame Time: 0.00208333
52.6987 96.0008 9.18907 -0.530108 -1.88295 2.01456 0.47077 -1.6585 0.0786096 0.940614 0.686035 0.0874462 0.941064 2.33097 0.0716382 -7.42322 11.8106 -3.59953 7.76015 -2.95505 -4.54382 58.8091 -8.72393 -5.41846 112.617 18.8172 17.08 1.43821e-006 -1.92971e-007 -7.84381e-006 8.1233 1.01098 -0.695751 1.51365e-006 -1.49271e-006 -3 8.02914 -4.95144 0.697675 -65.0657 -7.55543 4.8916 -106.738 16.4226 -6.84154 -4.47481e-009 -8.62478e-007 3.50159e-006 -10.2559 0.292545 0.662151 -2.09904e-005 5.73805e-006 3 -8.0289 -4.95144 -0.697668 173.218 3.19341 3.5809 180 7.01578e-015 179.065 178.35 11.0686 179.646 -5.44318e-007 -6.69345e-007 0.0154478 -16.9556 68.8681 20.2132 8.13658 25.234 -3.48592 -172.749 2.89996 -2.0347 4.5067e-006 -1.99009e-005 -0.906337 -1.49206 -13.0068 0.433253 1.24097e-006 -7.34254e-006 -0.129498 18.9794 71.205 -22.4126 -8.13661 25.2345 3.48532 
52.695 96.0003 9.19153 -0.528301 -1.89159 2.01543 0.470779 -1.65612 0.0786254 0.940625 0.690801 0.0891292 0.941087 2.33574 0.0733253 -7.43174 11.8011 -3.60072 7.76619 -2.94673 -4.54647 58.8132 -8.71932 -5.41565 112.611 18.7869 17.0353 1.43821e-006 -1.92971e-007 -7.84381e-006 8.16396 1.10119 -0.706126 1.51365e-006 -1.49271e-006 -3 8.02914 -4.95144 0.697675 -65.0762 -7.54373 4.88551 -106.724 16.4034 -6.83235 -4.47478e-009 -8.62477e-007 3.50159e-006 -10.2622 0.348382 0.667801 -2.09904e-005 5.73805e-006 3 -8.0289 -4.95144 -0.697668 173.216 3.18389 3.58298 180 7.01578e-015 179.065 178.35 11.0704 179.646 -5.44318e-007 -6.69345e-007 0.0154478 -16.9564 68.8702 20.2149 8.13658 25.234 -3.48592 -172.751 2.88892 -2.03526 4.5067e-006 -1.99009e-005 -0.906337 -1.49364 -13.0058 0.432923 1.24097e-006 -7.34254e-006 -0.129498 18.9811 71.2062 -22.4131 -8.13661 25.2345 3.48532 
52.6917 96.0048 9.20331 -0.526493 -1.90007 2.01645 0.470793 -1.65374 0.0785848 0.94064 0.695574 0.0907456 0.941119 2.34051 0.0749459 -7.44069 11.7907 -3.60193 7.77269 -2.9374 -4.54921 58.8168 -8.71502 -5.41303 112.605 18.7585 16.993 1.43821e-006 -1.92971e-007 -7.84381e-006 8.2026 1.18655 -0.715842 1.51365e-006 -1.49271e-006 -3 8.02914 -4.95144 0.697675 -65.0866 -7.53253 4.87968 -106.711 16.3859 -6.8248 -4.47477e-009 -8.62477e-007 3.50159e-006 -10.2677 0.40001 0.673152 -2.09904e-005 5.73805e-006 3 -8.0289 -4.95144 -0.697668 173.213 3.17455 3.58508 180 7.01578e-015 179.065 178.35 11.0721 179.646 -5.44318e-007 -6.69345e-007 0.0154478 -16.9573 68.8723 20.2167 8.13658 25.234 -3.48592 -172.753 2.87814 -2.0358 4.5067e-006 -1.99009e-005 -0.906337 -1.49526 -13.0048 0.432583 1.24097e-006 -7.34254e-006 -0.129498 18.9827 71.2073 -22.4135 -8.13661 25.2345 3.48532 
52.7029 96.0057 9.20296 -0.524684 -1.90845 2.01756 0.47081 -1.65135 0.0785049 0.940657 0.700353 0.0923156 0.941156 2.34529 0.0765199 -7.44993 11.7796 -3.60315 7.77952 -2.92736 -4.55201 58.8202 -8.71092 -5.41052 112.6 18.7313 16.9526 1.43821e-006 -1.92971e-007 -7.84381e-006 8.23983 1.26853 -0.725097 1.51365e-006 -1.49271e-006 -3 8.02914 -4.95144 0.697675 -65.097 -7.52168 4.87405 -106.698 16.3697 -6.81839 -4.47479e-009 -8.62477e-007 3.50159e-006 -10.2726 0.448691 0.678294 -2.09904e-005 5.73805e-006 3 -8.0289 -4.95144 -0.697668 173.211 3.16532 3.58719 180 7.01578e-015 179.065 178.349 11.0739 179.646 -5.44318e-007 -6.69345e-007 0.0154478 -16.9581 68.8744 20.2184 8.13658 25.234 -3.48592 -172.755 2.86754 -2.03632 4.5067e-006 -1.99009e-005 -0.906337 -1.4969 -13.0039 0.432236 1.24097e-006 -7.34254e-006 -0.129498 18.9843 71.2084 -22.4139 -8.13661 25.2345 3.48532 
52.7001 96.0047 9.20076 -0.522874 -1.91676 2.01874 0.47083 -1.64896 0.0784024 0.940675 0.705135 0.093859 0.941197 2.35007 0.0780674 -7.45935 11.768 -3.60439 7.78654 -2.91691 -4.55485 58.8234 -8.70693 -5.40809 112.594 18.7048 16.9131 1.43821e-006 -1.92971e-007 -7.84381e-006 8.27627 1.34857 -0.73409 1.51365e-006 -1.49271e-006 -3 8.02914 -4.95144 0.697675 -65.1074 -7.51104 4.86852 -106.685 16.3543 -6.81264 -4.47479e-009 -8.62477e-007 3.50159e-006 -10.2771 0.495689 0.683316 -2.09904e-005 5.73805e-006 3 -8.0289 -4.95144 -0.697668 173.208 3.15617 3.58931 180 7.01578e-015 179.065 178.349 11.0757 179.646 -5.44318e-007 -6.69345e-007 0.0154478 -16.9589 68.8765 20.2201 8.13658 25.234 -3.48592 -172.756 2.85705 -2.03683 4.5067e-006 -1.99009e-005 -0.906337 -1.49857 -13.003 0.431885 1.24097e-006 -7.34254e-006 -0.129498 18.9858 71.2095 -22.4142 -8.13661 25.2345 3.48532 
52.7036 96.0064 9.20509 -0.521064 -1.92506 2.01993 0.470849 -1.64657 0.0782944 0.940693 0.709918 0.0953957 0.941238 2.35486 0.0796082 -7.46881 11.7564 -3.60562 7.7936 -2.90637 -4.55769 58.8265 -8.70298 -5.40568 112.589 18.6785 16.874 1.43821e-006 -1.92971e-007 -7.84381e-006 8.31253 1.42812 -0.743019 1.51365e-006 -1.49271e-006 -3 8.02914 -4.95144 0.697675 -65.1177 -7.50044 4.86302 -106.673 16.3389 -6.80706 -4.47478e-009 -8.62477e-007 3.50159e-006 -10.2816 0.542265 0.688309 -2.09904e-005 5.73805e-006 3 -8.0289 -4.95144 -0.697668 173.206 3.14703 3.59143 180 7.01578e-015 179.065 178.349 11.0775 179.646 -5.44318e-007 -6.69345e-007 0.0154478 -16.9596 68.8786 20.2217 8.13658 25.234 -3.48592 -172.758 2.84659 -2.03734 4.5067e-006 -1.99009e-005 -0.906337 -1.50023 -13.002 0.431533 1.24097e-006 -7.34254e-006 -0.129498 18.9873 71.2106 -22.4146 -8.13661 25.2345 3.48532 
52.7074 96.0034 9.19846 -0.519253 -1.93339 2.02109 0.470868 -1.64418 0.0781975 0.94071 0.7147 0.0969458 0.941278 2.35964 0.0811623 -7.47818 11.745 -3.60686 7.80058 -2.89602 -4.56052 58.8297 -8.69897 -5.40322 112.584 18.6518 16.8343 1.43821e-006 -1.92971e-007 -7.84381e-006 8.34922 1.50864 -0.752083 1.51365e-006 -1.49271e-006 -3 8.02914 -4.95144 0.697675 -65.1281 -7.48974 4.85747 -106.66 16.3233 -6.80115 -4.47477e-009 -8.62477e-007 3.50159e-006 -10.2863 0.589683 0.693363 -2.09904e-005 5.73805e-006 3 -8.0289 -4.95144 -0.697668 173.203 3.13786 3.59354 180 7.01578e-015 179.065 178.349 11.0792 179.647 -5.44318e-007 -6.69345e-007 0.0154478 -16.9605 68.8806 20.2234 8.13658 25.234 -3.48592 -172.76 2.83607 -2.03785 4.5067e-006 -1.99009e-005 -0.906337 -1.50189 -13.0011 0.431183 1.24097e-006 -7.34254e-006 -0.129498 18.9888 71.2117 -22.4149 -8.13661 25.2345 3.48532 
52.7062 96.0047 9.2025 -0.517443 -1.94179 2.02218 0.470885 -1.6418 0.0781289 0.940725 0.719477 0.0985291 0.941313 2.36442 0.0827497 -7.48734 11.7341 -3.60808 7.80732 -2.88618 -4.5633 58.8332 -8.69481 -5.40069 112.578 18.6242 16.7934 1.43821e-006 -1.92971e-007 -7.84381e-006 8.38697 1.59159 -0.761479 1.51365e-006 -1.49271e-006 -3 8.02914 -4.95144 0.697675 -65.1385 -7.47879 4.85178 -106.647 16.3067 -6.79443 -4.47478e-009 -8.62477e-007 3.50159e-006 -10.2913 0.639206 0.698567 -2.09904e-005 5.73805e-006 3 -8.0289 -4.95144 -0.697668 173.201 3.12861 3.59565 180 7.01578e-015 179.065 178.348 11.081 179.647 -5.44318e-007 -6.69345e-007 0.0154478 -16.9613 68.8827 20.2251 8.13658 25.234 -3.48592 -172.761 2.82542 -2.03838 4.5067e-006 -1.99009e-005 -0.906337 -1.50353 -13.0002 0.430838 1.24097e-006 -7.34254e-006 -0.129498 18.9904 71.2128 -22.4153 -8.13661 25.2345 3.48532 
